<svg id="Camada_1" data-name="Camada 1" xmlns="http://www.w3.org/2000/svg" viewBox="0 0 443.24 443.24"><defs><style>.cls-1{fill:#fff;stroke:#fff;stroke-linecap:round;stroke-linejoin:round;stroke-width:1.95px;}</style></defs><path class="cls-1" d="M349.47,153.63c5.7,8.88,2.3,18.1.61,27.17-5.49,29.55-11.19,59-16.83,88.57Q325.65,309.16,318,349c-2.61,13.63-5.23,27.25-7.76,40.89-1,5.56-2.16,6.66-7.91,6.66q-78.13,0-156.27,0c-6.75,0-7.31-.65-8.54-7.15-5.08-26.73-10.26-53.43-15.36-80.15q-8.35-43.71-16.62-87.44c-3.06-16.07-6-32.17-9.28-48.19-1.36-6.56-1.41-12.83,1.2-18.93-10.68-16.25-9.2-33.17,6.59-46.37C100.41,85.55,118.72,66.36,144.31,72L147,68.66C160.5,52,185.42,53.14,197.43,71c1.22,1.8,2.95,3.25,5,5.47,1.18-2.69,1.75-4.06,2.37-5.41,4.52-9.84,11.9-16.12,22.67-18.11a14.53,14.53,0,0,0,8.63-4.68,30.72,30.72,0,0,1,50.35,7.4,13.75,13.75,0,0,0,7,6.89c8.85,4.2,13.33,10.87,17.36,24.45,11.28,3.25,19,10.4,22.64,21.88a6.15,6.15,0,0,0,2.46,2.81C352,122.41,356.17,134.84,349.47,153.63Zm-246.81-7c6.68-6.33,14.49-9.6,23.84-8.88,9.6.74,16.5,6,22.47,13.62,6.4-8.65,14.28-13.73,24.85-13.72,10.76,0,18.81,5.07,24.92,13.68,11.31-16.1,34.28-20.3,50.35-.2,6.08-8.25,13.89-13.37,24.43-13.49,10.79-.13,18.77,5.07,25.34,13.78,5.79-8,13.06-12.81,21-13.67,1.42-3.48,2.16-6.27,3.58-8.65,8.45-14.23-1.09-31.9-13-33.36-1.39,3.28-2.63,6.66-4.25,9.85-1.16,2.29-2.92,4.28-5.9,2.5-2.53-1.51-2.21-3.71-1.07-6,.52-1,1.11-2,1.56-3,4.77-11.22-.34-25.09-10.59-28.68-.59,2.59-.77,5.38-1.91,7.69-.76,1.51-3,3.37-4.42,3.25-2.54-.23-3.47-2.63-2.92-5.25.24-1.12.6-2.22.75-3.35a23.35,23.35,0,0,0-18.5-26.28c-7.91-1.64-16.4,1.29-20.14,7.07,5.82,2.71,11.73,5.36,14.65,11.5-3.26,4.74-4.07,4.94-7.62,2.06-1.19-1-2.28-2-3.52-2.92a22.8,22.8,0,0,0-35.83,15.73c1.19,1.1,2.7,2.27,4,3.67,7.39,8.2,10.24,17.65,7.62,28.54-.61,2.51-2,4.37-4.79,3.68-2.6-.65-3.47-2.77-2.85-5.39.13-.56.36-1.1.46-1.66,3-17.19-13.85-31.56-30.36-25.79-2.48.87-4.58,2.88-7.08,3.58-1.85.52-4.77.54-5.94-.57-2-1.91-.65-4.3,1.54-5.63a79.1,79.1,0,0,1,8.52-4.55,72,72,0,0,1,7.35-2.41c-6.72-7.47-14.57-10.24-22.35-8.24C155.34,68.11,149,75.71,148,88c-.22,2.81-.06,5.89-3.72,5.79-3.92-.11-4-3.5-3.86-6.42.07-2.6.4-5.18.61-7.67-13.51-2.78-25.14,3.74-28.61,15.51-3.13,10.63,1.57,22.22,10.64,25.93.63-1.57,1.22-3.17,1.91-4.72C130.53,104,145,96,157.6,98.28c15,2.75,26.17,14.77,26.74,28.64.12,2.91-.22,5.74-3.7,5.94-3,.17-3.83-2.19-4.13-5-1.26-12-9.18-20.28-20.54-21.89-10.11-1.43-20,4.65-24.37,15-1.29,3.1-2.23,6.36-6.82,4.52-.49-.19-1.6.66-2.16,1.26-2.22,2.37-4.35,1.72-6.56,0-3.6-2.74-7.23-5.46-11-8.33C97.5,124.52,95.74,137.12,102.66,146.67ZM302.19,388.32c.44-1.67,1-3.27,1.28-4.91,6.23-32.87,12.37-65.76,18.66-98.62,7-36.78,14.24-73.53,21.26-110.32.77-4.05,1.69-8.43.91-12.33-2.08-10.55-10.8-16.85-21.52-16.53-10,.29-18.19,7.48-19.78,18-1.28,8.46-2,17-2.91,25.52-1.62,14.76-3.13,29.54-4.83,44.29-2.15,18.71-4.49,37.4-6.66,56.11q-3.8,32.63-7.44,65.26c-1.25,11.07-2.45,22.15-3.71,33.53Zm-132,0c-.63-6.16-1.15-11.64-1.77-17.11-1.73-15.14-3.52-30.26-5.25-45.39Q160.58,303.4,158.1,281c-1.21-10.79-2.37-21.58-3.6-32.37q-2.69-23.55-5.44-47.09c-1.51-13.06-2.75-26.15-4.62-39.15-1.6-11.15-13.12-18.57-24.77-16.55-11,1.91-18.28,13.09-16.11,24.36,4.64,24.08,9.13,48.19,13.72,72.28q12.38,65,24.81,130c1,5.33,2.23,10.62,3.34,15.85Zm8.12-.17h25.06c-.9-24.42-1.78-48.38-2.66-72.35-17.3-7.25-32-17.13-32.94-37.37-.94-20.48,13.32-31.08,29.44-38.94,0-3.88.1-7.3,0-10.72-.73-21.14-1.39-42.29-2.32-63.43-.54-12.28-10.63-20.58-23.32-19.67-11.15.81-19.47,11-18.34,22.64q.72,7.38,1.54,14.75c1.61,14.57,3.21,29.15,4.89,43.71,1.73,14.94,3.61,29.86,5.31,44.8,1.68,14.75,3.18,29.53,4.84,44.28q2.67,23.83,5.5,47.64C176.22,371.6,177.25,379.69,178.29,388.16ZM247,315.92q-1.32,36.09-2.65,72.32h24.76c.36-1.77.77-3.24.95-4.74Q272.57,362.23,275,341c3.14-28,6.16-56,9.39-84,3.21-27.81,6.7-55.59,9.84-83.4.5-4.47.61-9.31-.56-13.58-2.72-9.94-12.38-15.49-23.18-14.21-9.14,1.08-16.94,9.29-17.46,19.07-.92,17.51-1.6,35-2.2,52.57-.25,7.37,0,14.75,0,22.36,15.64,7.35,29.12,17.6,29.18,36.93C280,298,264.89,308.17,247,315.92Zm-19.11-73.17c-19.59,0-32.81,4.61-42.47,13.35-13.5,12.22-13.5,29.71,0,41.85,10.76,9.68,23.77,13.36,37.82,13.44,14.67.1,28.31-3.49,39.38-13.83,13.05-12.19,13.08-28.94,0-41A52,52,0,0,0,227.91,242.75Zm-22.38-7.08H242a33.8,33.8,0,0,0,.52-3.64c.88-21.33,1.89-42.67,2.52-64,.38-13-8.94-22.51-21.38-22.47-12.14,0-21.06,9.36-20.83,22.32.26,13.91.92,27.82,1.48,41.72C204.63,218.33,205.11,227.06,205.53,235.67Zm30.9,152.58q1.4-35.21,2.74-69.56H208.54c.9,22.79,1.82,46.1,2.74,69.56ZM343.72,144.32c3.08-8.54-.43-18-8.56-23.3-2.35,5.49-4.7,11-6.92,16.19Z"/><path class="cls-1" d="M268.1,100.64c-3.3-11.52-18.88-19.51-32.34-12.32-2.73,1.46-5.94,4.54-8.23.14-2.16-4.16,2-5.55,4.68-7a30.77,30.77,0,0,1,42,13.19c.94,1.86,1.75,3.78,3.33,4.78,4.76,3.27,9.67,6.36,14.22,9.9,2.18,1.7,3.55,4.39.66,6.8-2.58,2.15-4.52.5-6.29-1.54-10.41-12-26.77-5.56-29.62,6.63-.65,2.79-2.11,4.78-5.14,3.83s-3.05-3.51-2.31-6.16a24.59,24.59,0,0,1,14-16.34C264.65,101.81,266.29,101.32,268.1,100.64Z"/></svg>