<svg id="Camada_1" data-name="Camada 1" xmlns="http://www.w3.org/2000/svg" viewBox="0 0 443.24 443.24"><defs><style>.cls-1,.cls-2{fill:none;stroke:#fff;stroke-linecap:round;stroke-miterlimit:10;}.cls-1{stroke-width:17.7px;}.cls-2{stroke-width:17.57px;}</style></defs><path class="cls-1" d="M102.49,344.31H307.8"/><path class="cls-1" d="M154.79,239.77v63"/><path class="cls-1" d="M256.12,239.77v63"/><path class="cls-1" d="M205.15,239.77v63"/><path class="cls-2" d="M307.8,178h29.89a35.1,35.1,0,0,1,24.52,9.92,33.43,33.43,0,0,1,10.16,23.94v63.1a33.43,33.43,0,0,1-10.16,23.94,35.1,35.1,0,0,1-24.52,9.92H307.8Z"/><path class="cls-1" d="M307.8,139.16v230.2a23.1,23.1,0,0,1-1.85,9,23.44,23.44,0,0,1-5.25,7.65,24.22,24.22,0,0,1-7.85,5.1,24.63,24.63,0,0,1-9.26,1.77h-157a24.45,24.45,0,0,1-17.07-6.9,23.29,23.29,0,0,1-7.07-16.66V139.16"/><path class="cls-1" d="M102.49,139.16a31.13,31.13,0,0,1-21.87-8,29.62,29.62,0,0,1-9.75-20.71A29.33,29.33,0,0,1,80,90.36a30.76,30.76,0,0,1,20.74-8.48,37.67,37.67,0,0,1,13.59-22.94A39.37,39.37,0,0,1,140,50.32a41.87,41.87,0,0,1,16.72,3.35,40.83,40.83,0,0,1,13.87,9.72,38.13,38.13,0,0,1,14.28-2.77A36.42,36.42,0,0,1,203,65.26a35.39,35.39,0,0,1,13.27,13,33.21,33.21,0,0,1,11-2,32.81,32.81,0,0,1,13.87,3.05A34.65,34.65,0,0,1,252.9,71a35.39,35.39,0,0,1,28.36,0A34.78,34.78,0,0,1,293,79.3h1a33,33,0,0,1,23.19,8.49,31.36,31.36,0,0,1,10.3,22,33.23,33.23,0,0,1-5,17.17,34.39,34.39,0,0,1-13.29,12.28H196v16.93a20.06,20.06,0,0,1-6.09,14.36,21.09,21.09,0,0,1-14.72,6H169.7a21.05,21.05,0,0,1-14.71-6,20.06,20.06,0,0,1-6.09-14.36v-17h-45"/></svg>