<svg id="Camada_1" data-name="Camada 1" xmlns="http://www.w3.org/2000/svg" viewBox="0 0 443.24 443.24"><defs><style>.cls-1{fill:#fff;}</style></defs><path class="cls-1" d="M123.49,221.38a106.23,106.23,0,0,1,107-106.13c58.33.14,106,48.16,105.77,106.63A106.48,106.48,0,0,1,229.17,328C170.75,327.88,123.37,280.08,123.49,221.38Zm105.93,93c50.73.44,92.55-40.81,93.07-91.8a92.81,92.81,0,0,0-91.9-93.81c-50.87-.5-93.09,40.92-93.6,91.83A93,93,0,0,0,229.42,314.41Z"/><path class="cls-1" d="M93.86,185.71c4.58,6.45,4.24,13.66,4.24,20.85Q98,274.8,98.05,343c0,14.91-10.89,25.65-25.06,25a23.64,23.64,0,0,1-22.25-20.78,56.46,56.46,0,0,1-.28-6.37q0-68.43,0-136.86c0-6.32.2-12.53,4.38-18.24-1.71-.88-3.09-1.56-4.44-2.29C35.23,175.17,26.9,162.75,27,145.13,27,125.05,27,105,27,84.88a28.49,28.49,0,0,1,.08-3.58,6.65,6.65,0,0,1,6.78-6,6.44,6.44,0,0,1,6.6,6.13c.18,1.85.1,3.72.1,5.58,0,19.55.1,39.1,0,58.65A26.83,26.83,0,0,0,51.19,167.8c12.89,10.33,33.07,10.39,46,.14,7.09-5.62,10.83-12.86,10.79-22.08-.1-19.81,0-39.63,0-59.45,0-1.33,0-2.66,0-4,.27-4.53,2.88-7.21,6.89-7.13s6.63,2.86,6.66,7.39c.07,12.23,0,24.47,0,36.71,0,8.64,0,17.29,0,25.93.13,17.13-8,29.31-22.51,37.64C97.48,183.87,95.82,184.67,93.86,185.71ZM84.48,272V224.48c0-8.38.09-16.77,0-25.14a10.13,10.13,0,0,0-10.18-10.13c-5.54,0-9.89,4.37-10.15,10.19,0,.93,0,1.86,0,2.79V341.07c0,1.33,0,2.67.07,4A10.17,10.17,0,0,0,71.57,354c6.75,1.91,12.87-3,12.89-10.58C84.52,319.59,84.48,295.78,84.48,272Z"/><path class="cls-1" d="M370.14,243.57c-2.72-1.61-5.67-2.92-8.08-4.89-4.55-3.72-5.89-8.88-5.81-14.64a293.94,293.94,0,0,1,8.42-64.34c5.79-24.29,12.4-48.39,19-72.47,2.69-9.76,12.69-14.38,21.84-10.91,6.64,2.51,10.67,8.54,10.67,16.23q0,43.7,0,87.4c0,14.24-.11,28.47.08,42.71.08,5.92-.69,11.39-5.2,16,5,6.26,5.23,13.49,5.19,20.91-.12,28.2,0,56.41-.07,84.61a23.64,23.64,0,0,1-17.56,23c-10.31,2.75-21.3-1.37-26.47-10.68a26.52,26.52,0,0,1-3.42-12c-.28-30.33-.21-60.67-.09-91C368.67,250.1,369.64,246.72,370.14,243.57Zm32.53-84.13q0-32.1,0-64.21c0-2.43.75-5.69-2.7-6.2s-3.69,3-4.28,5.21c-6.44,24.79-13.2,49.52-19,74.47a256.15,256.15,0,0,0-6.81,54.09c-.09,6.07.68,6.82,6.89,6.84,6.52,0,13,0,19.55,0,5.84,0,6.36-.51,6.36-6.39Q402.69,191.34,402.67,159.44ZM382.09,299.11c0,14.49,0,29,0,43.48,0,7,4.23,11.81,10.22,11.86s10.24-4.79,10.35-11.74v-1.2q0-42.67,0-85.37a22.07,22.07,0,0,0-.47-5.14,10.11,10.11,0,0,0-19.57-.11,21.48,21.48,0,0,0-.51,5.13Q382.06,277.56,382.09,299.11Z"/><path class="cls-1" d="M220.45,378.57c-38.18-.85-77.78-18.67-109.32-54.14a17.35,17.35,0,0,1-2.19-2.82,6.76,6.76,0,0,1,10.58-8.24,33.83,33.83,0,0,1,2.4,2.67C182.34,384.89,290.43,380.5,345,307c.47-.64.9-1.32,1.41-1.93,2.68-3.25,6.39-3.93,9.52-1.76a6.55,6.55,0,0,1,1.36,9.82c-6.91,8.23-13.59,16.79-21.41,24.1C306.82,364.32,269.39,378.61,220.45,378.57Z"/><path class="cls-1" d="M238.93,64.67c43.85,1.28,86.53,22.64,118.33,65.25.48.64.95,1.28,1.39,2,2.56,3.91,2,7.92-1.34,10.17-3.16,2.12-7.05,1.17-9.77-2.22-4.4-5.5-8.57-11.21-13.37-16.33a142.91,142.91,0,0,0-189.4-17.31c-5.34,3.93-9.09,4.09-11.85.51s-1.61-7.53,3.8-11.53C163.6,75.28,196,64.67,238.93,64.67Z"/><path class="cls-1" d="M67.62,108.32c0,8.24,0,16.48,0,24.72,0,5-2.43,7.71-6.56,7.79-4.29.08-6.94-2.81-7-7.89Q54,108,54.1,83.09c0-4.84,2.55-7.71,6.64-7.8C65,75.2,67.57,78,67.6,83.2,67.65,91.57,67.61,100,67.62,108.32Z"/><path class="cls-1" d="M94.48,108c0,8.24,0,16.49,0,24.73,0,5.1-2.53,8.08-6.73,8.12s-6.79-2.79-6.8-8q-.06-24.73,0-49.46c0-5.27,2.39-8.09,6.65-8.13s6.86,2.95,6.89,8.37C94.51,91.77,94.49,99.88,94.48,108Z"/></svg>