<svg id="Camada_1" data-name="Camada 1" xmlns="http://www.w3.org/2000/svg" viewBox="0 0 443.24 443.24"><defs><style>.cls-1{fill:#fff;}</style></defs><path class="cls-1" d="M22.4,150.19c.46-.76.88-1.54,1.38-2.27a5.49,5.49,0,0,1,6.5-2.24,5.24,5.24,0,0,1,4,5.19c.06,2.19-.27,4.44.06,6.59,1.26,8.17,8,13.75,16.73,13.77q40.83.08,81.67,0c9.86,0,19.71.11,29.56-.08,7.58-.14,13.64-5.52,15.3-13.1a16,16,0,0,0-8.81-17.76,18.83,18.83,0,0,0-7.48-1.71q-55.23-.16-110.45,0a40.32,40.32,0,0,0-5,.65c-3.58.46-6.44-1.41-7-4.57a5.67,5.67,0,0,1,4.8-6.84c4.16-.74,8.42-.92,13.05-1.39-.53-8,.37-15.69,6.42-21.86s13.65-7.44,22.27-6.9c0-3.9,0-7.36,0-10.82.1-7.64,5-12.61,12.66-12.75q8-.13,16,0c7.81.13,12.67,5.16,12.74,13.08,0,3.33,0,6.67,0,10.35,8.49-.28,16.19.8,22.2,7s7.1,13.82,6.46,22c4.07.33,7.83.3,11.46,1a27.92,27.92,0,0,1-4.59,55.36c-10.24.17-20.48,0-30.72.06H127V283.79h4.17c9.72,0,19.46-.25,29.16.11a54.5,54.5,0,0,1,12.82,2.51,5.44,5.44,0,0,0,5-.47c8.07-4.93,16.15-9.83,24.36-14.53,2.37-1.37,3-3,3-5.59q-.1-59.31,0-118.62a22.6,22.6,0,0,1,1.1-7.61c2-5.38,6.27-8,11.89-8.6C231.36,129.6,237,123.25,237,110.3c0-1.82-.09-3.64.07-5.45a5.75,5.75,0,0,1,11.4-.55c3,23.09-10.57,37-27.45,38.17-3,.2-4,1.4-4,4.33q.21,9.52,0,19c0,2.18.79,3.2,2.66,4.1q45.55,21.75,91.08,43.56a5.61,5.61,0,0,0,4.25.2q46.6-22.23,93.11-44.69a6.89,6.89,0,0,0,.84-.61c0-7.49,0-15.13,0-22.77,0-2.83-1.83-2.95-3.88-3.13-13.47-1.15-23.76-9.79-26.75-22.7a42.73,42.73,0,0,1-.82-9.26c-.08-14.39,0-28.78,0-43.17,0-4.92-.18-5.08-5-5.09H361.7c-4.86,0-4.88,0-4.89,5.08,0,8.55.13,17.11,0,25.67-.43,20.53-13.54,37.46-32.88,42.68-26.08,7-53-12.34-54.19-39.31-.44-9.7-.16-19.44-.23-29.16,0-4.79-.2-5-5.1-5-4.15,0-8.3.05-12.45,0-2.32,0-3.26,1-3.23,3.27q.09,7.58,0,15.17c-.05,4.41-2.47,7.19-6,7.08s-5.6-2.71-5.63-7c0-5.45-.08-10.89,0-16.34a13.58,13.58,0,0,1,13.79-13.82c5.18-.1,10.37,0,15.56,0,8.91.06,14.55,5.55,14.7,14.55s.1,18.15,0,27.22c-.07,8.38,2.35,15.83,7.91,22.16a31.79,31.79,0,0,0,34.69,9.06,32.73,32.73,0,0,0,21.34-30.17c.23-9.2,0-18.4.08-27.61,0-9.74,5.45-15.18,15.14-15.22,4.67,0,9.34,0,14,0,9.2.06,14.81,5.48,14.89,14.74.12,14.91,0,29.82.05,44.73a49.21,49.21,0,0,0,.23,5.43,17.55,17.55,0,0,0,15.69,15.31c1.42.14,2.85.21,4.24.47a13.32,13.32,0,0,1,11.26,13c.12,3.5,0,7,0,10.5,0,48.36-.29,96.72.15,145.07.16,18-13.17,29.37-27.42,28.52a8,8,0,0,0-1.51.3v11.13c0,7.26,0,14.52,0,21.78,0,14.21-9.41,23.56-23.7,23.57q-66.31,0-132.62,0c-23.6,0-47.2-.31-70.79.11-14.87.26-27.59-3.68-38.1-15.29,0,3,0,6,0,9,0,8.92-4.74,13.63-13.69,13.7-4.79,0-9.59.05-14.39,0-8.46-.1-13.23-4.89-13.29-13.29,0-3.23,0-6.46,0-10.27-8.27.38-16-.53-22-6.68S56,348.64,56.73,339.89c-2,0-3.6,0-5.22,0-14.3-.17-24.55-8.1-28.4-21.93a7,7,0,0,0-.71-1.31v-9.33c.16-.2.39-.38.45-.61,4.53-15.8,13.85-22.89,30.22-22.92,9.32,0,18.64,0,28,0,1.36,0,2.73-.12,3.94-.18V182.92H67.19c-5.83,0-11.66.07-17.49,0a27.85,27.85,0,0,1-25.79-19c-.49-1.45-1-2.89-1.51-4.33ZM217.28,262.41c5.6-3.35,10.83-6,15.53-9.4,9.24-6.68,19.27-9,30.67-8.58,10.44.4,17.24,4.08,21.32,14a35.2,35.2,0,0,0,42.72,20.06,34.43,34.43,0,0,0,23.3-21.68c2.11-5.53,5.43-10,11.3-11.38,19.28-4.55,30.23,8.8,29.87,22.14-.4,14.9-.09,29.81-.09,44.72v4.1c10.49.92,17.09-4.87,17.1-14.73q0-58.33,0-116.67c0-.94-.19-1.88-.32-3.08-1.2.52-2,.84-2.83,1.23C377,197,348.17,210.72,319.44,224.74c-4.54,2.22-8.21,2.16-12.73,0-28-13.68-56.2-27.09-84.32-40.58-1.57-.75-3.16-1.45-5.11-2.35ZM285,339.64c-1-1.56-1.47-2.44-2.05-3.28-4-5.74-8.07-11.43-11.95-17.24-2.45-3.68-1-8,2.88-9.13,3.05-.91,5.24.46,6.95,2.93,5.47,7.87,11.05,15.67,16.41,23.61a6.34,6.34,0,0,0,6,3.19c24.24-.12,48.48-.06,72.71-.08,1.37,0,2.74-.11,4.15-.18.06-1.2.14-2,.14-2.74V267.51c0-.65,0-1.3,0-1.95a9.69,9.69,0,0,0-8.59-9.09c-6.21-1-7.89,0-10.33,5.84a47.16,47.16,0,0,1-54.62,28C291,286.5,280,277,273.66,262.18c-1.17-2.72-2.35-5.38-5.68-5.68-2.65-.25-5.33-.05-8.28-.05.51,7.13-.43,13.55-5.07,18.73.91,1.38,1.53,2.36,2.19,3.31,3.4,4.9,6.9,9.72,10.16,14.7a5.6,5.6,0,0,1-1.45,7.91,5.88,5.88,0,0,1-8-1.26c-1.23-1.5-2.27-3.16-3.38-4.75l-9.11-13-9.81,6c11.77,16.87,23.3,33.45,34.92,50a4.19,4.19,0,0,0,2.8,1.59C276.7,339.75,280.43,339.64,285,339.64Zm95.14,12H131.48a11.49,11.49,0,0,0,.21,1.46,28.73,28.73,0,0,0,27.78,20.33q104.35.07,208.72,0c.77,0,1.55,0,2.33-.06a10.36,10.36,0,0,0,9.55-9.2C380.41,360.11,380.14,356,380.14,351.65Zm-259.62,5.71c-.25-1.29-.35-1.92-.5-2.54-4.32-18.42,2.79-35.53,18.94-45.42,5.63-3.45,11.33-6.8,17-10.21,1.59-.95,3.15-2,4.72-3l-.23-.77H53.66c-1.43,0-2.86,0-4.28.08A16.27,16.27,0,0,0,34.08,312c.13,9.25,7.38,16.12,17.33,16.17,16.2.08,32.41,0,48.61,0,4.3,0,6.9,2.15,7,5.6s-2.67,6-7.08,6c-9.07.07-18.14,0-27.22,0H68.26v3.88c0,9.43,4,13.57,13.37,13.59,8.16,0,16.33,0,24.49,0ZM97.23,183.1V283.53h17.55V183.1Zm63.71,126.63c-6.46,4-12.94,7.53-18.95,11.76a26.08,26.08,0,0,0-11,17.87h69.73L185.6,317.62C175.6,320.79,167.56,318.24,160.94,309.73Zm-17.19-183c0-1.65,0-2.93,0-4.22,0-8.81-4.25-13.21-13-13.24-16.46-.07-32.93,0-49.39,0a21.6,21.6,0,0,0-4.24.4,10.72,10.72,0,0,0-8.61,8.92,64.78,64.78,0,0,0-.06,8.14Zm27.64,176.85c3.58,4.42,6.94,4.88,12.16,1.76,19.67-11.75,39.28-23.59,59-35.29,4.64-2.76,6.28-6.55,5.2-12.22Zm44.24-3.77c9.08,13,17.8,25.53,26.57,38,.48.69,1.26,1.66,1.93,1.68,4.05.16,8.11.08,12.85.08C246.05,323.91,235.64,309,225.15,294Zm13.54,39.85-23.63-33.88-9.83,5.94c6.27,9,12.37,17.77,18.55,26.51a3.25,3.25,0,0,0,2.13,1.36C220.34,339.7,224.31,339.63,229.17,339.63ZM97.25,369.22v11.47h17.51V369.22Zm0-283.33V97.25h17.44V85.89Z"/><path class="cls-1" d="M316,184.77a32.5,32.5,0,0,1,3.26,1.16,5.39,5.39,0,0,1,3.2,6c-.45,2.67-2.14,4.64-4.89,4.77-4.9.24-9.83.25-14.74,0-2.73-.14-4.44-2.09-4.88-4.78a5.41,5.41,0,0,1,3.2-6.05,27.22,27.22,0,0,1,3-1.09V165.29c-.72-.13-1.33-.19-1.92-.34-3.22-.85-5.09-3.18-4.9-6.06.21-3.06,2.53-5.22,6-5.51,8.5-.72,13.08,3.16,12.73,11.41C315.73,171.38,316,178,316,184.77Z"/></svg>