<svg id="Camada_1" data-name="Camada 1" xmlns="http://www.w3.org/2000/svg" viewBox="0 0 443.24 443.24"><defs><style>.cls-1{fill:#fff;stroke:#fff;stroke-linecap:round;stroke-linejoin:round;stroke-width:1.95px;}</style></defs><path class="cls-1" d="M236.23,377.6h-147c-1.49,0-3,.06-4.49,0-6.54-.32-10.75-4.47-11.24-11.05-.06-.83-.05-1.67-.05-2.5,0-12.5,0-25,0-37.49,0-7.92,2.56-11,10.34-12.78,11.35-2.57,20.37-13.27,21.09-24.38A27.78,27.78,0,0,0,86,260.82c-.46-.16-1-.13-1.47-.26-9.17-2.51-11-4.92-11-14.33q0-17.74,0-35.49a31.27,31.27,0,0,1,.31-5.48,10.31,10.31,0,0,1,9.18-8.55,57,57,0,0,1,6-.13q147.47,0,294.92-.08c10.43,0,15.51,4.84,15.08,14.86-.53,12.31-.11,24.66-.13,37,0,6.59-2.68,10-9.16,11.67-12.35,3.15-20.08,10.68-22.06,23.47-2.13,13.79,7.2,27.21,20.87,30.32,7.69,1.74,10.34,5,10.35,12.79,0,12.66-.31,25.33.12,38,.24,7.09-4.72,13.21-13.36,13.17-49.82-.24-99.64-.12-149.46-.12Zm150.66-51.85c-18.32-5.62-29.88-17-30.82-36.37-1-21.66,10.78-34.65,30.64-41V208.85H327.46c-1.08,3.85-3.64,5.63-7.36,5.76-4.15.13-5.92-3.06-7.58-5.79H85.6v39.59c1.19.42,2.12.77,3.07,1.06,17.74,5.47,31.56,22,26.93,46.19-2.65,13.88-11.69,23.21-25,28.23-1.68.64-3.39,1.2-5.1,1.8v39.84H312.65c1.46-3.52,3.46-5.95,7.74-5.91s6,2.86,7.23,5.8h59.27Z"/><path class="cls-1" d="M374,176.69c-22.29,4.84-37.07-.62-47.2-16.36-8-12.42-9.71-32,5.78-49.07L311.14,77.51,261,109.32c.95,3.9.42,7.24-3.42,9.37-3,1.68-4.47,1.6-9.44-1.17-11.13,7-22.37,14.16-33.6,21.29q-39.42,25-78.85,50a19.62,19.62,0,0,1-4.91,2.35,6,6,0,0,1-6.46-2.69,6,6,0,0,1,1.49-7.23,30,30,0,0,1,3.3-2.25q87.06-55.25,174.15-110.44a20.81,20.81,0,0,1,7.74-3,9.19,9.19,0,0,1,9.4,4.48c7.73,12,15.45,24.1,23,36.26,2.74,4.43,1.88,9.52-2,13.18a27,27,0,0,0-8.83,18.42c-1.15,16,11.32,27.85,23.82,28.91a31.31,31.31,0,0,0,14.2-1.76,10.24,10.24,0,0,1,12.7,4c2.18,3.14,4.21,6.39,6.17,9.68,1.77,3,1.58,4.59-.5,6.71s-4.7,2.67-7.24,1a16.56,16.56,0,0,1-3.77-3.88C376.48,180.78,375.32,178.76,374,176.69Z"/><path class="cls-1" d="M56.45,239.28l15.67,24.85C74,267.08,76,270,77.7,273c1.82,3.19,1.18,6.07-1.46,7.91a5.83,5.83,0,0,1-8.33-1.6c-3.56-5.2-6.84-10.6-10.23-15.92C54,257.61,50.32,251.9,46.74,246.1c-4.39-7.08-3.22-12.49,3.62-17,2.62-1.76,5.3-3.43,8-5.08,3.91-2.39,7.08-1.88,9,1.38s.91,6.2-2.88,8.73C62,235.73,59.48,237.32,56.45,239.28Z"/><path class="cls-1" d="M269,127.5a5.67,5.67,0,0,1,5.25,2.83c1.92,2.91,3.88,5.81,5.54,8.86,2,3.59,1,6.64-2.5,8.91-3.69,2.41-7,2-9.59-1.52a77.34,77.34,0,0,1-5.35-8.39C259.47,133.09,262.9,127.51,269,127.5Z"/><path class="cls-1" d="M298.15,171.1a7.25,7.25,0,0,1-5.09,7c-2.84,1.09-5.43.52-7.18-1.83a82,82,0,0,1-6.46-10.07c-1.61-3-.4-6.22,2.52-8.26,2.74-1.92,6.9-2.14,8.69.19a127.35,127.35,0,0,1,7.22,11.3A4.24,4.24,0,0,1,298.15,171.1Z"/><path class="cls-1" d="M312.91,269.17c0-1.49-.09-3,0-4.47.31-4.48,3-6.95,7.39-6.92s6.68,2.23,6.95,6.7a71.68,71.68,0,0,1,0,9.94c-.34,4.39-2.87,6.49-7.21,6.42-4.15-.08-6.75-2.48-7.08-6.7C312.81,272.49,312.92,270.83,312.91,269.17Z"/><path class="cls-1" d="M327.24,304.93a48.43,48.43,0,0,1,0,5c-.41,4-3,6.34-6.86,6.42s-7-2.29-7.31-6a63.94,63.94,0,0,1,0-11.41c.33-3.63,3.75-6.09,7.41-5.94s6.23,2.27,6.68,6a51.32,51.32,0,0,1,0,5.95Z"/><path class="cls-1" d="M312.92,338.3c0-1.66-.13-3.33,0-5a7.06,7.06,0,0,1,7.35-6.57c3.92.05,6.58,2.3,6.85,6.34a76.4,76.4,0,0,1,0,10.91c-.31,3.92-2.6,5.74-6.62,5.85-4.18.12-7-1.84-7.49-5.61a42.16,42.16,0,0,1,0-5.95Z"/><path class="cls-1" d="M327.23,235.31a51.14,51.14,0,0,1,0,5.94c-.47,3.88-2.75,5.76-6.71,5.88s-7.07-2-7.42-5.74a62,62,0,0,1,0-11.4,7,7,0,0,1,7.33-6.07c3.8.08,6.42,2.45,6.86,6.43a45.55,45.55,0,0,1,0,5Z"/></svg>