<svg id="Camada_1" data-name="Camada 1" xmlns="http://www.w3.org/2000/svg" viewBox="0 0 443.24 443.24"><defs><style>.cls-1{fill:#fff;}</style></defs><path class="cls-1" d="M290.84,269.55v3.95q0,26.61,0,53.23c0,10.8-6.61,17.35-17.45,17.36-26.62,0-53.23.05-79.85-.07-2.81,0-4.22.7-5.46,3.35-12.79,27.29-42.35,42.9-72.65,38.56C86,381.72,61.78,357.57,57.35,328a69.33,69.33,0,0,1,70.16-79.72c1.08,0,2.16,0,3.61,0v-4.08q0-47.57,0-95.14c0-11.56,6.36-17.94,17.86-17.94h78v-3.66q0-26.61,0-53.23c0-11.1,6.48-17.65,17.49-17.65q62.37,0,124.75,0c10.88,0,17.48,6.53,17.48,17.32q0,89.16,0,178.32c0,10.76-6.63,17.32-17.48,17.32H290.84ZM237.6,163.07v88.18c0,6.11,1.55,7.65,7.66,7.65q61.56,0,123.11,0c6.1,0,7.66-1.55,7.66-7.66V74.89c0-6.11-1.55-7.65-7.66-7.65H245.25c-6.11,0-7.65,1.54-7.65,7.66Zm-26.77,119.3c-2.57-2.61-5-5.13-7.53-7.62-10.73-10.76-21.58-21.4-32.19-32.28a27.78,27.78,0,0,1,26.09-46.59c5,1.3,9.51,4.32,13.87,6.38l15.72-7.86V141.77H149.2c-5.85,0-7.43,1.6-7.43,7.53q0,48.75,0,97.5v3.3c18.52,4.88,33,15.08,42.94,31.19s12.54,33.51,8.45,52.14h79.91c5.42,0,7.13-1.73,7.13-7.18q0-26.79,0-53.58c0-1-.11-1.92-.18-3.13-10.61,0-21-.14-31.42.05-6.94.13-13.59-.18-18.54-6.65ZM88.53,317.45a37.26,37.26,0,1,0,37.28-37.24A37.39,37.39,0,0,0,88.53,317.45ZM211.2,267.28c4.65-4.71,9.09-9.35,13.71-13.79a6.54,6.54,0,0,0,2.08-5.25c-.08-12.85,0-25.71-.05-38.57,0-1-.09-2.1-.15-3.3-7.32,1.55-10.63,8-16.34,12.27-2.68-2.88-5.15-5.89-8-8.5a17,17,0,0,0-23.48.42c-6.64,6.45-7.34,17-.89,23.69C188.78,245.33,199.87,256,211.2,267.28ZM88.92,272.35,96,280a49.26,49.26,0,0,1,24.28-10.11V259.47C109.81,259.73,95.23,265.81,88.92,272.35ZM78.21,312a49.22,49.22,0,0,1,10.07-24.33l-7.6-7.09c-6.81,6.64-13.59,23.33-12.6,31.42ZM67.59,322.92a56.77,56.77,0,0,0,12.72,31.3l7.5-6.89c-2.13-3.94-4.56-7.68-6.23-11.73s-2.58-8.37-3.86-12.68Zm94.92,39.91-6.91-7.35c-3.92,2.12-7.66,4.55-11.72,6.22s-8.36,2.57-12.51,3.79v10C142.35,374.94,155.31,369.54,162.51,362.83Zm.47-90.52a57.12,57.12,0,0,0-31.65-13v10.62a48.89,48.89,0,0,1,24.31,10Zm8.27,8.35L163.47,288a49.3,49.3,0,0,1,10,23.92H184A57.15,57.15,0,0,0,171.25,280.66Zm-.34,74A57.37,57.37,0,0,0,184,323h-10.6a48.93,48.93,0,0,1-10.05,24.27ZM88.5,362.54a57.43,57.43,0,0,0,31.78,13.1V365.07a49,49,0,0,1-24-9.86Z"/><path class="cls-1" d="M302.84,131.12,280.2,161.29l-22.63-30.16L280.19,101C287.79,111.09,295.2,121,302.84,131.12Zm-22.64,12.4,9.31-12.4-9.32-12.39-9.29,12.4Z"/><path class="cls-1" d="M333.44,101l22.63,30.17-22.63,30.17-22.63-30.16Zm9.31,30.17-9.32-12.39-9.29,12.41c3.13,4.16,6.13,8.16,9.31,12.37Z"/><path class="cls-1" d="M280.2,225.19,257.57,195l22.62-30.17L302.83,195Zm0-42.57c-3.31,4.4-6.31,8.41-9.31,12.41l9.32,12.36L289.5,195C286.37,190.83,283.46,187,280.2,182.62Z"/><path class="cls-1" d="M356.07,195l-22.62,30.16L310.81,195c7.5-10,14.92-19.9,22.62-30.18Zm-31.94,0,9.32,12.39,9.3-12.4-9.31-12.39Z"/><path class="cls-1" d="M279.93,88.57H259v21H248.47V78.07h31.46Z"/><path class="cls-1" d="M354.75,237.67V216.56h10.42v31.53H333.69V237.67Z"/><path class="cls-1" d="M163,184.29H152.66V152.63h31.53V163H163Z"/><path class="cls-1" d="M259,312.26V291h10.33V322.6H237.76V312.26Z"/></svg>