<svg id="Camada_1" data-name="Camada 1" xmlns="http://www.w3.org/2000/svg" viewBox="0 0 443.24 443.24"><defs><style>.cls-1{fill:#fff;}</style></defs><path class="cls-1" d="M274.05,160.39a35.7,35.7,0,0,0,25.35-10.56,36.12,36.12,0,0,0-25.12-61.56c-19.55-.31-36.52,15.73-36.7,35.07C237.32,141,250.16,160.36,274.05,160.39Zm.23-61.56a24.39,24.39,0,0,1,22.4,15.47,24.77,24.77,0,0,1-23,34.55c-14,0-24.52-10.88-24.54-25.27a24.51,24.51,0,0,1,25.13-24.75Z"/><path class="cls-1" d="M373.68,163.19c-12.32-3.69-24.65-7.3-37-11.05-5.63-1.69-5.66-1.84-4-7.52,2.52-8.34,4.57-16.71,3.58-25.57C333.23,91.38,315.74,70.68,289,63.16c-31.68-8.89-67.09,11.12-76.15,42.78a65,65,0,0,0,.8,38.87c1.86,5.74,1.67,5.74-3.87,7.36-11,3.19-22,6.29-32.92,9.72a20.91,20.91,0,0,1-13,.1c-19.77-6-39.61-11.79-59.42-17.7-11.25-3.37-22.49-6.74-33.8-9.88-6.28-1.68-9,.26-9.54,6.62-.18,2,0,3.93,0,5.9V339c0,10.93.32,11.32,11,14.57.54.15,1.06.39,1.68.54,28.36,8.42,56.78,16.68,85,25.46a35.49,35.49,0,0,0,22-.16q42.46-13,85.18-25.08a24.94,24.94,0,0,1,12.2,0c10.3,2.54,20.39,5.84,30.57,8.86,20.16,5.95,40.14,11.95,60.24,17.81,9.43,2.74,11.56,1.13,11.76-8.75.39-14.3.83-28.64.89-42.91q.38-77.49.51-155C382.14,166.22,381.47,165.51,373.68,163.19ZM164.92,366.51a16.38,16.38,0,0,1-.65,2.66c-28.91-8.69-57.47-17.3-86.08-25.81-3.64-1.1-5.46-2.68-5.42-6.92.2-27.5.11-55,.15-82.56a22.09,22.09,0,0,1,.67-3.7l27.52,8.15c1.59.49,3.17,1.11,4.8,1.46,4.18.93,7.37-.47,8.11-3.82.84-3.77-1.53-5.59-4.78-6.59l-16.8-5c-5-1.57-10.08-3.37-15.12-4.7-2.77-.78-4.37-2-4.35-5.17q.19-43.32.3-86.65c0-.24.29-.49.71-1.18,7.59,2.1,15.35,4.18,23.06,6.43q30.51,9,61,18.13c7,2.07,7.07,2,7.09,9v78.27c0,7.35-.14,7.36-6.86,5.39l-25.45-7.43a5.41,5.41,0,0,0-4.16.52,5.48,5.48,0,0,0-2.56,3.34,5.49,5.49,0,0,0,3.68,6.64c9.54,2.89,22.66,6.74,30.53,9.11,3.24,1,5,2.28,5,6.34C164.89,310.41,165,338.46,164.92,366.51Zm68-275c13.89-17.18,32.49-23.58,53.94-17.92,20.93,5.61,33.6,19.81,38.17,41.29,2.31,10.92.43,21.09-3.87,31.07-11.14,25.84-28.56,47.17-47.52,68.13-18.58-20.47-35.82-41.26-46.82-66.48C218.21,127.76,219.15,108.54,232.94,91.5Zm-51.49,80.2c11.58-3.14,23.1-6.54,34.56-10.11,3.52-1.11,5.67-.61,7.47,2.83,10.7,20.49,25,38.41,40.59,55.26,4.55,4.94,4.4,10.11,3.73,15.5-.22,1.68-3,3.77-5,4.48-7.9,2.73-15.95,5.06-24,7.4-19,5.64-37.88,11.3-56.86,16.85-5.8,1.68-6,1.5-6-4.65-.09-13.18,0-26.35,0-39.55s.15-27-.09-40.43C175.69,175,177.2,172.84,181.45,171.7Zm190,194.69a12.62,12.62,0,0,1-.76,2.75c-13.44-4-26.88-7.87-40.18-11.8-15-4.48-29.92-9-44.89-13.48-6.18-1.85-6.25-1.78-6.3-8.65V305.13a5.27,5.27,0,0,0-.39-2,5.37,5.37,0,0,0-1.15-1.71,5.21,5.21,0,0,0-1.71-1.15,5.39,5.39,0,0,0-2-.4h-.64a5.2,5.2,0,0,0-2,.4,5,5,0,0,0-1.72,1.15,5.37,5.37,0,0,0-1.15,1.71,5.48,5.48,0,0,0-.4,2v31c0,3.62-.46,5.81-5,7.12-26.74,7.79-53.34,16.16-80,24.28a67.09,67.09,0,0,1-7.32,1.28v-7.75q0-38.68-.08-77.41c0-4.55,1-7.11,5.81-8.43,26.88-7.65,53.57-15.68,80.38-23.46,5.86-1.69,6-1.5,6.15,4.48.12,7.29,0,14.59,0,21.9a52.45,52.45,0,0,0,.23,5.88c.37,3.1,1.87,5.36,5.31,5.36,3.85,0,5.49-2.4,5.54-6,.11-8.14,0-16.27.12-24.39,0-9.25,0-9.2,9.09-6.51,26,7.7,51.87,15.45,77.88,23,3.36,1,5.31,2.17,5.29,6.1C371.48,309.71,371.53,338.07,371.48,366.39Zm.08-146.32v38.75c0,6.94-.19,7.11-7.11,5.05-18.47-5.44-36.95-11-55.33-16.56-8.3-2.49-16.5-5.29-24.86-7.48-3.7-1-4.84-2.71-5-6.39a19.05,19.05,0,0,1,5.31-15.06c15.12-16.17,28.79-33.56,39.2-53.25,1.95-3.68,4.07-4.38,8.07-3.12,11.44,3.61,23,6.84,34.59,9.87,4,1.05,5.27,3,5.2,7-.16,13.72,0,27.45,0,41.27Z"/></svg>