<svg id="Camada_1" data-name="Camada 1" xmlns="http://www.w3.org/2000/svg" viewBox="0 0 443.24 443.24"><defs><style>.cls-1{fill:#fff;}</style></defs><path class="cls-1" d="M322.76,382.46H124.23c-.18-.11-.34-.3-.52-.32-14.55-2.05-25.13-15-24.63-30.51.08-2.46,0-4.92,0-7.23-5.2-.27-9.93-.24-14.58-.81-18.18-2.26-29.29-23.68-20.86-39.95,5.48-10.58,14.3-15.71,26.07-16,3.09-.09,6.18,0,9.19,0V249.9c-3.19,0-6.21,0-9.22,0-7.37-.12-14.06-2.24-19.49-7.36C62,234.77,58.93,225.25,62,214.3c3.16-11.45,10.89-18.39,22.61-20.36,4.68-.79,9.53-.59,14.31-.85v-37.2c-4.81-.24-9.43-.2-14-.74-13.56-1.62-24.15-14-24.11-27.81S71.36,101.25,85,99.61c4.62-.55,9.3-.51,14.11-.75,0-3,0-5.83,0-8.65.15-17.14,12.18-29.38,29.27-29.39q103-.1,206.06.09a31.63,31.63,0,0,1,13,2.88c11.27,5.33,16.17,14.88,16.17,27.15q0,87.81-.05,175.6a7.63,7.63,0,0,0,2.1,5.59,62.84,62.84,0,0,1,14.94,28.59c.67,2.94,1.24,5.91,1.86,8.86v12.57c-.23,1-.51,2-.68,3-4.42,25.78-18.64,43.72-43,53.23C333.65,380.36,328.09,381.14,322.76,382.46Zm-52.83-18.84c-21.85-26.07-27.37-54.33-8.58-83.11,20.08-30.75,49.44-36.92,83.4-24.76v-164c0-8.89-3.22-12.13-12.05-12.13H135.15c-2.3,0-4.6,0-6.91,0-6.5.09-10.22,3.87-10.29,10.43,0,2.73.09,5.45,0,8.17-.09,1.79.49,2.7,2.19,3.51,10.72,5.12,16.55,13.78,16.56,25.6s-5.79,20.5-16.5,25.65a3.29,3.29,0,0,0-2.26,3.47c.08,11.93.11,23.87,0,35.8,0,2.16.78,3,2.6,3.89C131,201.37,136.7,210,136.67,221.7s-5.76,20.33-16.33,25.44c-2,1-2.45,2-2.44,4,.09,11.62.13,23.24,0,34.86,0,2.48.8,3.55,3,4.62,9.59,4.74,15,12.63,15.77,23.24s-3.06,19.67-12.13,24.89c-5.85,3.37-7,7.11-6.64,13,.45,8.11,3.86,11.85,12,11.85H269.93Zm93.66-47.8a47.11,47.11,0,0,0-94.22,0c-.06,26.32,21.28,47.92,47.25,47.82S363.63,342,363.59,315.82ZM99.08,118c-3.35,0-6.7-.09-10,0a9.39,9.39,0,1,0,0,18.77q9.73.18,19.47,0a9.39,9.39,0,1,0,0-18.78C105.37,117.89,102.22,118,99.08,118ZM98.47,231c3.35,0,6.7.09,10,0a9.39,9.39,0,1,0,0-18.78q-9.73-.18-19.47,0a9.39,9.39,0,1,0,0,18.77C92.18,231.13,95.33,231,98.47,231Zm.59,75.42c-3.35,0-6.7-.1-10,0a9.39,9.39,0,1,0,.06,18.77q9.74.18,19.47,0a9.39,9.39,0,1,0-.07-18.78C105.35,306.37,102.2,306.45,99.06,306.46Z"/><path class="cls-1" d="M183.93,151.57c.95-.89,1.79-1.64,2.58-2.44,9.33-9.31,18.6-18.69,28-27.93,5.68-5.57,14.16-3.49,16.17,3.84a8.82,8.82,0,0,1-2.41,9q-18.81,18.93-37.74,37.71c-3.95,3.9-9.25,3.87-13.23,0q-10.92-10.61-21.52-21.53A9.36,9.36,0,1,1,169.07,137c4.25,4,8.32,8.25,12.47,12.37C182.27,150.08,183,150.75,183.93,151.57Z"/><path class="cls-1" d="M183.93,227c.95-.9,1.79-1.66,2.59-2.45,9.33-9.32,18.6-18.69,28-27.93,5.67-5.57,14.16-3.48,16.16,3.85a8.82,8.82,0,0,1-2.42,8.95q-18.8,18.92-37.74,37.71c-4,3.89-9.24,3.86-13.23,0q-10.92-10.59-21.52-21.53a9.36,9.36,0,1,1,13.3-13.17c4.26,4,8.32,8.24,12.48,12.37C182.28,225.48,183.05,226.15,183.93,227Z"/><path class="cls-1" d="M183.78,302.77c3.72-3.76,7-7.1,10.31-10.42,6.87-6.88,13.67-13.84,20.68-20.6,5.56-5.36,14-3.11,15.91,4.1a8.83,8.83,0,0,1-2.43,8.94c-12.54,12.62-25.08,25.23-37.75,37.72-3.94,3.89-9.24,3.83-13.22,0q-10.92-10.61-21.52-21.53a9.36,9.36,0,1,1,13.32-13.14C174,292.52,178.62,297.48,183.78,302.77Z"/><path class="cls-1" d="M288.18,155.66c-9,0-18,0-27,0-6.38,0-10.65-3.84-10.64-9.44s4.28-9.39,10.69-9.39q27,0,54,0c6.38,0,10.65,3.84,10.64,9.44s-4.29,9.37-10.69,9.39C306.18,155.68,297.18,155.66,288.18,155.66Z"/><path class="cls-1" d="M288.23,231.05c-9,0-18,0-27,0-6.41,0-10.67-3.8-10.69-9.39s4.26-9.43,10.64-9.44q27,0,54,0c6.41,0,10.67,3.8,10.69,9.39S321.62,231,315.24,231C306.23,231.07,297.23,231.05,288.23,231.05Z"/><path class="cls-1" d="M325.89,306.45c3.34,0,6.26-.06,9.17,0,5.6.15,9.69,4.18,9.66,9.44s-4.11,9.28-9.74,9.36q-9.09.14-18.2,0c-5.75-.09-9.61-3.95-9.7-9.7q-.13-9.1,0-18.2c.08-5.62,4.1-9.72,9.36-9.74s9.29,4.07,9.44,9.67C326,300.2,325.89,303.11,325.89,306.45Z"/></svg>