<svg id="Camada_1" data-name="Camada 1" xmlns="http://www.w3.org/2000/svg" viewBox="0 0 443.24 443.24"><defs><style>.cls-1{fill:#fff;}</style></defs><path class="cls-1" d="M77.27,279.43a131.71,131.71,0,0,0,46.42,52.48c21.36,14,46.92,20.58,61,20.33-.07-1.22.19-2.55-.25-3.61-3.17-7.72-1.77-15.42.79-22.75a71.44,71.44,0,0,1,18.17-28,37.86,37.86,0,0,1,20.82-10.24c5.34-.85,8.47-4.26,11.08-8.8,2.91-5.07,5.88-10.36,9.93-14.45,10-10.13,23.81-10,34.45-.68,3,2.66,5.37,6.1,8.19,9s5.63,6.4,9.08,8.63A12.25,12.25,0,0,0,315,275.93c3.47-8.53,5.89-17.49,8.71-26.27.74-2.28,1.19-4.64,1.9-6.92a6,6,0,0,1,7.29-4.11,6.42,6.42,0,0,1,4.94,7.26c-6.33,33.94-22.19,62.56-48.26,85.25A142.73,142.73,0,0,1,240,359a144.64,144.64,0,0,1-58.37,6.43,137.93,137.93,0,0,1-39.18-9.51,144.56,144.56,0,0,1-55.35-38.84A136.77,136.77,0,0,1,64.78,283c-1.59-3.51-3.72-5.18-7.85-5.6-13-1.32-25.5-4.56-35.88-13.12-9-7.39-11.64-18.45-7.22-31.1,3.59-10.29,10.76-18,18.9-24.87,5.7-4.77,11.87-9,17.91-13.34a10,10,0,0,0,4.16-6.37,144.74,144.74,0,0,1,66.69-91,151.88,151.88,0,0,1,31.85-14.08A142.55,142.55,0,0,1,208,77.72,134.72,134.72,0,0,1,263.3,94.24c2.4,1.33,3.81,3.13,3.71,6.06a5.68,5.68,0,0,1-4,5.41,7.11,7.11,0,0,1-4.71,0c-6.36-2.56-12.45-5.91-19-8-7.86-2.5-16-4.07-24.11-5.8-1.3-.28-3,.52-4.28,1.23a22.71,22.71,0,0,0-4,3.14c-6.35,5.71-6.83,9.91-1.94,16.86,3.39,4.82,7.05,9.48,10.17,14.48a25.47,25.47,0,0,1,3.22,8.54c.82,4.26-.93,8.21-3.62,11.31-4.31,5-9.17,9.51-13.73,14.29a108.86,108.86,0,0,0-7.89,8.76c-4.62,6-5.48,12.82-4.54,20.35,1.24,9.87,2.38,19.87-1.31,29.65a28.25,28.25,0,0,1-16.2,16.8c-13.43,5.51-27.45,5.33-41.56,3.06-5.33-.86-10.47-2.19-14.76-5.68-5.93-4.82-7.68-11-6.53-18.46a44.26,44.26,0,0,1,8.07-18.82c5.26-7.43,4.71-14.61-.77-21.23-7.14-8.63-16.11-14.37-27.77-14.81-6-.22-10.59,1.72-13.06,7.75A143.94,143.94,0,0,0,64.83,206a133.13,133.13,0,0,0,.47,34.95c1,7.07,3,14,4.7,21,.81,3.2,3,4.86,6.57,4.51,11.9-1.17,23.86-1.91,35.71-3.4a254.33,254.33,0,0,0,26.55-4.84c9.13-2.16,18.12-5,27.12-7.7,7-2.1,13.93-4.25,20.76-6.77,9.6-3.54,19.25-7,28.54-11.29,14-6.4,27.81-13.4,41.65-20.22,3.39-1.68,6.63-3.66,10-5.48s6.93-1.32,9.11,1.41c2.05,2.57,2.24,5.49-.31,7.49A59.12,59.12,0,0,1,265,222.29c-19,9.23-38,18.75-57.38,27.18-12.43,5.4-25.51,9.41-38.49,13.44A357.71,357.71,0,0,1,133,272.57c-12.52,2.5-25.32,3.64-38,5.24C89.43,278.5,83.85,278.84,77.27,279.43ZM87.78,147.52c.66.48.87.73,1.11.78.83.16,1.67.24,2.51.35,16.79,2.1,29.49,10.71,38,25.07,5.28,8.95,5.24,18.48-.33,27.66-2.18,3.6-4.42,7.2-6.24,11-4,8.37-2.08,12.61,6.91,14.81a66.43,66.43,0,0,0,31.77-.25c9.2-2.22,14.65-8,15-17.33.22-6.45-.63-12.93-.91-19.39a71.23,71.23,0,0,1,0-9.24c.83-9.4,5.27-17.09,11.8-23.66,5-5,10.14-9.79,15-14.87,3.91-4.07,3.89-5.28.71-9.87-3.52-5.09-7.42-9.94-10.62-15.21-4.83-8-5.24-16.17.15-24.21a16.33,16.33,0,0,0,1-2.38,18.56,18.56,0,0,0-3.87-.43c-7.41.79-14.95,1.07-22.19,2.7a134.19,134.19,0,0,0-77.89,50.61A20.09,20.09,0,0,0,87.78,147.52ZM302.86,297.41c-10-2.71-13.1-3.94-17.47-8.33-4.15-4.17-7.9-8.76-11.73-13.26-7-8.25-15.87-8-22.2.86a107.6,107.6,0,0,0-5.44,9.47c-3.53,6.19-8.07,11-15.36,12.88-4.83,1.26-9.94,2.6-14.06,5.26-9,5.82-14.6,14.73-18.58,24.51-2.48,6.11-3.4,12.46-.34,18.86,2.09,4.36,2.92,5.31,7.66,4.94a132.85,132.85,0,0,0,86.45-41.77C295.58,306.76,298.89,302.25,302.86,297.41ZM56.94,264.94c-.47-3-.71-4.76-1-6.51-1.21-6.32-2.9-12.59-3.57-19-.85-8.09-.86-16.27-1.3-24.41a14.23,14.23,0,0,0-.87-3c-1,.31-2.26.35-3,1-3.66,3.06-7.55,6-10.66,9.53-3.84,4.4-7.9,9-10.21,14.25-3.67,8.34-1.82,15.16,5.42,19.42a75.06,75.06,0,0,0,13,5.85C48.27,263.34,52.16,263.85,56.94,264.94Z"/><path class="cls-1" d="M327.18,154.24c-11.46-7.57-22.24-14.7-33-21.8-4.69-3.1-9.49-6-14.1-9.24-4.79-3.32-4.59-9,.41-12,5.52-3.33,11-6.76,16.84-9.54a10.74,10.74,0,0,1,7.67-.33c18.43,7.16,36.73,14.66,55.07,22a92,92,0,0,0,10.2,3.87,9,9,0,0,0,5.9-.44c5.73-2.94,11.19-6.42,16.84-9.51a31.24,31.24,0,0,1,23.7-2.91c3.59,1,7.37,2.1,10.39,4.15,4.83,3.29,5.51,11.43,3,18.19-4.41,11.84-13,19.32-24,24.63-2.52,1.21-4.73,3.08-7.26,4.25s-3.25,3.05-3.59,5.65c-1,7.39-2.21,14.74-3.33,22.11q-1.31,8.55-2.57,17.11c-1.44,9.74-3.09,19.46-4.16,29.24-.44,4-2.59,6.1-5.52,7.88-4.67,2.85-9.43,5.56-14.17,8.28-6,3.41-11.34.68-11.82-6.24-.61-8.71-.84-17.45-1.31-26.18-.45-8.44-1-16.88-1.54-25.31-.07-1.08-.34-2.14-.6-3.72a26.11,26.11,0,0,0-4.18,1.4c-2.84,1.53-5.46,3.5-8.39,4.81-3.85,1.72-5.32,4.47-5.65,8.56a47.25,47.25,0,0,1-2.31,11.55,12.3,12.3,0,0,1-4.51,5.81,158.84,158.84,0,0,1-14.19,8.25c-4.53,2.44-10.41,1.16-11-5.14-.85-9-2.36-17.84-3.9-26.71a10,10,0,0,0-3.16-5.51C286,191.64,279,186,271.7,180.67c-4.71-3.43-4.87-10.41,1.48-13.13a58.15,58.15,0,0,0,11.32-6.45c4.54-3.32,9-2.38,13.66-.88,2.93.95,5.72,2.51,8.71,3a13.76,13.76,0,0,0,7.22-.69,73.68,73.68,0,0,0,9.93-5.5A24.43,24.43,0,0,0,327.18,154.24Zm-15.73,64.08c4.34-.94,5.38-1.65,6.18-4.82,1.28-5,2.12-10.21,3.59-15.18a9.8,9.8,0,0,1,3.7-5.2c8.24-5.09,16.63-10,25.1-14.66,8.16-4.53,12.06-2.41,12.74,6.9,1.14,15.6,2.09,31.22,3.07,46.83.14,2.19,0,4.39,0,6.65,5-.49,6.73-2,7.49-6.53,1-6,1.76-12,2.6-18q2.46-17.55,4.88-35.13c.55-3.9,1.2-7.79,1.62-11.7.55-5.17,2.23-9.48,7.23-12,4-2,7.77-4.52,11.77-6.56,7.07-3.61,13-8.2,16.07-15.89,1.47-3.73,1-5.3-2.89-6.09a23,23,0,0,0-16.75,2.43c-6.92,4-13.86,8-20.93,11.77a7,7,0,0,1-5.12.31c-10.65-4-21.22-8.16-31.8-12.31-12.15-4.77-24.29-9.61-36.45-14.34-2.76-1.08-5.32.33-6.93,3.65,1,.69,2,1.41,3,2.09,14.3,9.46,28.63,18.87,42.9,28.36,5.76,3.83,5.64,9.09-.34,12.64-8.45,5-16.94,10-25.57,14.67-2.07,1.13-4.93,1.94-7.11,1.48-4.64-1-9.1-2.87-13.59-4.5-4.18-1.52-5.43-1.27-9.13,2.61,4.63,3.67,9,7.72,13.91,10.86,5.75,3.64,7.89,8.66,8.38,15.11C309.54,207.2,310.62,212.59,311.45,218.32Z"/></svg>